<svg xmlns="http://www.w3.org/2000/svg" viewBox="0 0 21.16 21.16">
  <g id="icon-phone" transform="translate(-9.535 -0.539)">
    <g id="_003---Call" data-name="003---Call" transform="translate(9.535 0.539)">
      <path id="Shape" d="M9.759,12.435A8.54,8.54,0,0,1,7.181,7.587a.725.725,0,0,1,.208-.607L9.024,5.346a.73.73,0,0,0,.1-.9L6.524.4A.73.73,0,0,0,5.579.137L1.4,2.1a.726.726,0,0,0-.4.725A20.193,20.193,0,0,0,7.149,15.044a20.187,20.187,0,0,0,12.215,6.149.726.726,0,0,0,.725-.4l1.967-4.177a.73.73,0,0,0-.264-.944l-4.041-2.6a.73.73,0,0,0-.9.1l-1.634,1.634a.725.725,0,0,1-.607.208A8.54,8.54,0,0,1,9.759,12.435Z" transform="translate(-0.997 -0.038)" fill="#4a90e2"/>
      <path id="Shape-2" data-name="Shape" d="M34.931,17.661a.73.73,0,0,1-.73-.73,5.478,5.478,0,0,0-5.472-5.472.73.73,0,0,1,0-1.459,6.939,6.939,0,0,1,6.931,6.931A.73.73,0,0,1,34.931,17.661Z" transform="translate(-18.149 -6.352)" fill="#4a90e2"/>
      <path id="Shape-3" data-name="Shape" d="M38.579,11.309a.73.73,0,0,1-.73-.73,9.13,9.13,0,0,0-9.12-9.12A.73.73,0,0,1,28.73,0,10.591,10.591,0,0,1,39.309,10.579a.73.73,0,0,1-.73.73Z" transform="translate(-18.149)" fill="#4a90e2"/>
    </g>
  </g>
</svg>