<svg xmlns="http://www.w3.org/2000/svg" width="47.984" height="41.986" viewBox="0 0 47.984 41.986">
  <path id="Icon_awesome-quote-left" data-name="Icon awesome-quote-left" d="M43.486,23.243h-7.5v-6a6,6,0,0,1,6-6h.75A2.244,2.244,0,0,0,44.985,9V4.5A2.244,2.244,0,0,0,42.736,2.25h-.75a14.991,14.991,0,0,0-15,15V39.738a4.5,4.5,0,0,0,4.5,4.5h12a4.5,4.5,0,0,0,4.5-4.5v-12A4.5,4.5,0,0,0,43.486,23.243Zm-26.991,0H9v-6a6,6,0,0,1,6-6h.75A2.244,2.244,0,0,0,17.994,9V4.5A2.244,2.244,0,0,0,15.745,2.25H15a14.991,14.991,0,0,0-15,15V39.738a4.5,4.5,0,0,0,4.5,4.5h12a4.5,4.5,0,0,0,4.5-4.5v-12A4.5,4.5,0,0,0,16.495,23.243Z" transform="translate(0 -2.25)" fill="#fff"/>
</svg>