<svg xmlns="http://www.w3.org/2000/svg" id="icon-mc-ac" width="34.492" height="37.627" viewBox="0 0 34.492 37.627">
  <g id="Group_867" data-name="Group 867" transform="translate(0)">
    <path id="Path_4109" data-name="Path 4109" d="M55.432,27.334l-3.464-1.99,3.261-1.887a.784.784,0,0,0,.282-1.072l-.79-1.354a.784.784,0,0,0-1.072-.282L48.83,23.54l-2.147-1.913,4.756-2.1a.784.784,0,0,0,0-1.435l-4.82-2.125,2.211-1.252,4.843,2.82a.784.784,0,0,0,1.072-.282l.79-1.354a.784.784,0,0,0-.282-1.072l-3.287-1.913,3.466-1.992a.783.783,0,0,0,.288-1.071L54.934,8.5A.787.787,0,0,0,53.86,8.21L50.391,10.2l0-3.8a.784.784,0,0,0-.787-.78l-1.568.007a.784.784,0,0,0-.78.787L47.259,12l-2.409,1.364,0-4.657A.784.784,0,0,0,43.6,8l-3.45,2.387V7.18l4.868-2.787a.784.784,0,0,0,.292-1.07l-.778-1.361a.784.784,0,0,0-1.07-.292l-3.312,1.9V.784A.784.784,0,0,0,39.363,0H37.8a.784.784,0,0,0-.784.784v2.8L33.7,1.671a.784.784,0,0,0-1.07.292l-.778,1.361a.784.784,0,0,0,.292,1.07l4.868,2.8v3.176L33.6,8.016a.783.783,0,0,0-.473-.159.136.136,0,0,0-.031,0,.783.783,0,0,0-.784.784V13.5l-2.4-2.119.021-5.619a.784.784,0,0,0-.78-.787l-1.567-.007a.784.784,0,0,0-.787.78l-.014,3.836-3.483-2a.787.787,0,0,0-1.074.287l-.786,1.358a.783.783,0,0,0,.288,1.071l3.464,1.99-3.261,1.887a.784.784,0,0,0-.282,1.072l.79,1.354a.784.784,0,0,0,1.072.282l4.82-2.792L30.476,16,25.72,18.1a.784.784,0,0,0,0,1.435l4.82,2.125-2.211,1.252-4.843-2.82a.784.784,0,0,0-1.072.282l-.79,1.354a.784.784,0,0,0,.282,1.072l3.287,1.913L21.726,26.7a.783.783,0,0,0-.288,1.071l.786,1.358a.787.787,0,0,0,1.074.287l3.47-1.994,0,3.8a.784.784,0,0,0,.787.78L29.127,32a.784.784,0,0,0,.78-.787L29.9,25.625l2.409-1.364,0,4.657a.784.784,0,0,0,1.249.71l3.45-2.387v3.207l-4.868,2.787a.784.784,0,0,0-.292,1.07l.778,1.361a.784.784,0,0,0,1.07.292l3.312-1.9v2.784a.784.784,0,0,0,.784.784h1.568a.784.784,0,0,0,.784-.784v-2.8l3.312,1.908a.784.784,0,0,0,1.07-.292l.778-1.361a.784.784,0,0,0-.292-1.07l-4.868-2.8V27.256l3.416,2.355a.783.783,0,0,0,.473.159.136.136,0,0,0,.031,0,.783.783,0,0,0,.784-.784V24.132l2.4,2.119-.021,5.619a.784.784,0,0,0,.78.787l1.567.007a.784.784,0,0,0,.787-.78l.014-3.836,3.483,2a.787.787,0,0,0,1.074-.287L55.72,28.4A.783.783,0,0,0,55.432,27.334Z" transform="translate(-21.333)" fill="#12455f"/>
  </g>
</svg>