<svg xmlns="http://www.w3.org/2000/svg" width="328" height="707" viewBox="0 0 328 707" fill="none"><rect y="258" width="328" height="151" fill="white"/><rect y="490" width="328" height="151" fill="white"/><rect x="40" y="285" width="248" height="19" fill="#455A64"/><rect x="40" y="311" width="248" height="19" fill="#D9D9D9"/><rect x="68" y="340" width="188" height="19" fill="#D9D9D9"/><rect y="388" width="328" height="151" fill="#E8505B"/><path d="M0 627H328V669C328 689.987 310.987 707 290 707H38C17.0132 707 0 689.987 0 669V627Z" fill="#455A64"/><path d="M0 38C0 17.0132 17.0132 0 38 0H290C310.987 0 328 17.0132 328 38V258H0V38Z" fill="#0F3460"/><g opacity="0.3"><path d="M38.9085 205.121C26.0135 202.863 13.1327 200.343 0.251975 197.761L0 256.92H327.448L328 127C299.015 150.779 270.952 175.817 237.26 191.87C176.446 220.841 105.262 216.742 38.9085 205.121ZM138.559 236.07C136.929 236.07 135.607 234.748 135.607 233.117C135.607 231.487 136.929 230.165 138.559 230.165C140.19 230.165 141.512 231.487 141.512 233.117C141.512 234.748 140.19 236.07 138.559 236.07ZM157.289 236.07C155.658 236.07 154.336 234.748 154.336 233.117C154.336 231.487 155.658 230.165 157.289 230.165C158.92 230.165 160.241 231.487 160.241 233.117C160.246 234.748 158.924 236.07 157.289 236.07ZM176.022 236.07C174.392 236.07 173.07 234.748 173.07 233.117C173.07 231.487 174.392 230.165 176.022 230.165C177.653 230.165 178.975 231.487 178.975 233.117C178.975 234.748 177.653 236.07 176.022 236.07Z" fill="black"/></g><rect x="101" y="68" width="27" height="8" fill="#D9D9D9"/><rect x="179" y="68" width="27" height="8" fill="#D9D9D9"/><rect x="140" y="68" width="27" height="8" fill="#D9D9D9"/><rect x="218" y="68" width="27" height="8" fill="#D9D9D9"/><circle cx="6" cy="6" r="6" transform="matrix(-1 0 0 1 150 233)" fill="white"/><circle cx="6" cy="6" r="6" transform="matrix(-1 0 0 1 150 233)" fill="white"/><circle cx="6" cy="6" r="6" transform="matrix(-1 0 0 1 150 233)" fill="white"/><path d="M156 239C156 242.314 158.686 245 162 245C165.314 245 168 242.314 168 239C168 235.686 165.314 233 162 233C158.686 233 156 235.686 156 239Z" fill="white"/><path d="M156 239C156 242.314 158.686 245 162 245C165.314 245 168 242.314 168 239C168 235.686 165.314 233 162 233C158.686 233 156 235.686 156 239Z" fill="white"/><path d="M156 239C156 242.314 158.686 245 162 245C165.314 245 168 242.314 168 239C168 235.686 165.314 233 162 233C158.686 233 156 235.686 156 239Z" fill="white"/><circle cx="6" cy="6" r="6" transform="matrix(-1 0 0 1 185 233)" fill="white"/><circle cx="6" cy="6" r="6" transform="matrix(-1 0 0 1 185 233)" fill="white"/><circle cx="6" cy="6" r="6" transform="matrix(-1 0 0 1 185 233)" fill="white"/><circle cx="52" cy="68" r="23.5" fill="#16213E" stroke="white"/><path d="M108 23C108 15.268 114.268 9 122 9H204C211.732 9 218 15.268 218 23V23C218 30.732 211.732 37 204 37H122C114.268 37 108 30.732 108 23V23Z" fill="#131313"/></svg>