<svg xmlns="http://www.w3.org/2000/svg" fill="none" viewBox="18.84 7.26 79.46 100.91">
<path d="M42.9441 81.8103V79.1853C42.9441 76.4561 43.3608 74.0082 44.1941 71.8416C45.0483 69.6541 46.142 67.6332 47.4753 65.7791C48.8087 63.9041 50.2149 62.0707 51.6941 60.2791C53.1316 58.5291 54.4962 56.7374 55.7878 54.9041C57.1003 53.0499 58.1628 51.0499 58.9753 48.9041C59.8087 46.7374 60.2253 44.3103 60.2253 41.6228C60.2253 40.3311 60.0274 39.227 59.6316 38.3103C59.2566 37.3728 58.4649 36.9041 57.2566 36.9041C55.4233 36.9041 54.5066 38.5395 54.5066 41.8103V48.5291H42.9441C42.9233 48.0499 42.892 47.5082 42.8503 46.9041C42.8295 46.2999 42.8191 45.7166 42.8191 45.1541C42.8191 41.1957 43.2358 37.8416 44.0691 35.0916C44.9024 32.3207 46.3712 30.2166 48.4753 28.7791C50.6003 27.3207 53.5795 26.5916 57.4128 26.5916C61.9753 26.5916 65.517 27.8728 68.0378 30.4353C70.5795 32.9978 71.8503 36.6541 71.8503 41.4041C71.8503 44.6332 71.4337 47.4666 70.6003 49.9041C69.767 52.3207 68.6628 54.5291 67.2878 56.5291C65.9128 58.5082 64.4024 60.4874 62.7566 62.4666C61.5899 63.8624 60.4545 65.2895 59.3503 66.7478C58.267 68.2061 57.3087 69.7686 56.4753 71.4353H71.4753V81.8103H42.9441Z" fill="#882FBF"/>
<path d="M97.8021 26.1795L94.6244 81.3766L58.1374 107.667M97.8021 26.1795L58.6847 49.5855M97.8021 26.1795L52.8578 7.75794L19.3398 26.6349M58.1374 107.667L58.6847 49.5855M58.1374 107.667L20.8283 78.0578L19.3398 26.6349M58.6847 49.5855L19.3398 26.6349" stroke="#0F3460"/>
</svg>