<svg xmlns="http://www.w3.org/2000/svg" fill="none" viewBox="18.84 7.26 79.46 100.91">
<path d="M56.1316 82.4353C51.2774 82.4353 47.7462 81.1541 45.5378 78.5916C43.3295 76.0291 42.2253 72.1645 42.2253 66.9978V61.2478H53.5066V67.0291C53.5066 68.4874 53.6837 69.727 54.0378 70.7478C54.4128 71.7478 55.2358 72.2478 56.5066 72.2478C57.7983 72.2478 58.6212 71.7061 58.9753 70.6228C59.3295 69.5186 59.5066 67.727 59.5066 65.2478V63.8728C59.5066 61.977 59.1837 60.3207 58.5378 58.9041C57.9128 57.4874 56.6733 56.7791 54.8191 56.7791C54.5899 56.7791 54.3816 56.7895 54.1941 56.8103C54.0274 56.8103 53.8816 56.8207 53.7566 56.8416V46.9666C55.6524 46.9666 57.1003 46.5499 58.1003 45.7166C59.1003 44.8624 59.6003 43.4457 59.6003 41.4666C59.6003 38.3624 58.7045 36.8103 56.9128 36.8103C55.7462 36.8103 54.9545 37.2686 54.5378 38.1853C54.142 39.0811 53.9441 40.227 53.9441 41.6228V43.2791H42.5691C42.5483 43.0291 42.5274 42.727 42.5066 42.3728C42.5066 42.0186 42.5066 41.6749 42.5066 41.3416C42.5066 36.2999 43.6837 32.602 46.0378 30.2478C48.392 27.8936 51.9962 26.7166 56.8503 26.7166C66.2253 26.7166 70.9128 31.5916 70.9128 41.3416C70.9128 44.0499 70.5483 46.2895 69.8191 48.0603C69.0899 49.8103 67.7358 51.0395 65.7566 51.7478C67.3191 52.4978 68.4753 53.4561 69.2253 54.6228C69.9753 55.7895 70.4649 57.2374 70.6941 58.9666C70.9233 60.6957 71.0378 62.7895 71.0378 65.2478C71.0378 70.7478 69.8816 74.9874 67.5691 77.9666C65.2774 80.9457 61.4649 82.4353 56.1316 82.4353Z" fill="#E94560"/>
<path d="M97.8021 26.1795L94.6244 81.3766L58.1374 107.667M97.8021 26.1795L58.6847 49.5855M97.8021 26.1795L52.8578 7.75794L19.3398 26.6349M58.1374 107.667L58.6847 49.5855M58.1374 107.667L20.8283 78.0578L19.3398 26.6349M58.6847 49.5855L19.3398 26.6349" stroke="#16213E"/>
</svg>