<svg xmlns="http://www.w3.org/2000/svg" width="185.059" height="93" viewBox="0 0 185.059 93">
  <path id="Path_55149" data-name="Path 55149" d="M102.2,93,92.53,47.613,82.857,93l-.024-46.406-18.9,42.384,9.625-45.4-27.3,37.529,18.853-42.4L30.615,69.74,57.873,32.183l-40.2,23.183L52.142,24.3,8,38.613,48.177,15.389,2.022,20.216,46.15,5.853,0,.979,9.268,0H175.791l9.268.979-46.15,4.874,44.128,14.363-46.155-4.827,40.178,23.224L132.916,24.3l34.471,31.07-40.2-23.183L154.444,69.74l-34.5-31.034,18.853,42.4L111.5,43.581l9.626,45.4-18.9-42.384Z" fill="#fff" opacity="0.1"/>
</svg>