<svg xmlns="http://www.w3.org/2000/svg" width="28.035" height="32.041" viewBox="0 0 28.035 32.041">
  <path id="icon-mc-commercial-hover" d="M27.285,30.038H26.033V1.5a1.5,1.5,0,0,0-1.5-1.5H3.5A1.5,1.5,0,0,0,2,1.5V30.038H.751A.751.751,0,0,0,0,30.789v1.252H28.036V30.789A.751.751,0,0,0,27.285,30.038ZM8.01,4.756a.751.751,0,0,1,.751-.751h2.5a.751.751,0,0,1,.751.751v2.5a.751.751,0,0,1-.751.751h-2.5a.751.751,0,0,1-.751-.751Zm0,6.008a.751.751,0,0,1,.751-.751h2.5a.751.751,0,0,1,.751.751v2.5a.751.751,0,0,1-.751.751h-2.5a.751.751,0,0,1-.751-.751Zm3.254,9.262h-2.5a.751.751,0,0,1-.751-.751v-2.5a.751.751,0,0,1,.751-.751h2.5a.751.751,0,0,1,.751.751v2.5A.751.751,0,0,1,11.264,20.026Zm4.756,10.013H12.015V24.782a.751.751,0,0,1,.751-.751h2.5a.751.751,0,0,1,.751.751Zm4.005-10.764a.751.751,0,0,1-.751.751h-2.5a.751.751,0,0,1-.751-.751v-2.5a.751.751,0,0,1,.751-.751h2.5a.751.751,0,0,1,.751.751Zm0-6.008a.751.751,0,0,1-.751.751h-2.5a.751.751,0,0,1-.751-.751v-2.5a.751.751,0,0,1,.751-.751h2.5a.751.751,0,0,1,.751.751Zm0-6.008a.751.751,0,0,1-.751.751h-2.5a.751.751,0,0,1-.751-.751v-2.5a.751.751,0,0,1,.751-.751h2.5a.751.751,0,0,1,.751.751Z" fill="#c00"/>
</svg>