<svg width="33" height="36" viewBox="0 0 33 36" fill="none" xmlns="http://www.w3.org/2000/svg">
<path d="M8.16772 17.3492C8.16772 18.0693 7.584 18.653 6.86395 18.653C6.1439 18.653 5.56018 18.0693 5.56018 17.3492V16.8857C5.56018 16.1656 6.1439 15.5819 6.86395 15.5819C7.584 15.5819 8.16772 16.1656 8.16772 16.8857V17.3492Z" fill="white"/>
<path d="M8.16772 22.9055C8.16772 23.6256 7.584 24.2093 6.86395 24.2093C6.1439 24.2093 5.56018 23.6256 5.56018 22.9055V22.4425C5.56018 21.7224 6.1439 21.1387 6.86395 21.1387C7.584 21.1387 8.16772 21.7224 8.16772 22.4425V22.9055Z" fill="white"/>
<path d="M8.16772 28.4624C8.16772 29.1824 7.584 29.7661 6.86395 29.7661C6.1439 29.7661 5.56018 29.1824 5.56018 28.4624V27.9993C5.56018 27.2793 6.1439 26.6956 6.86395 26.6956C7.584 26.6956 8.16772 27.2793 8.16772 27.9993V28.4624Z" fill="white"/>
<path d="M12.8651 17.3492C12.8651 18.0693 12.2814 18.653 11.5613 18.653C10.8413 18.653 10.2576 18.0693 10.2576 17.3492V16.8857C10.2576 16.1656 10.8413 15.5819 11.5613 15.5819C12.2814 15.5819 12.8651 16.1656 12.8651 16.8857V17.3492Z" fill="white"/>
<path d="M12.8651 22.9055C12.8651 23.6256 12.2814 24.2093 11.5613 24.2093C10.8413 24.2093 10.2576 23.6256 10.2576 22.9055V22.4425C10.2576 21.7224 10.8413 21.1387 11.5613 21.1387C12.2814 21.1387 12.8651 21.7224 12.8651 22.4425V22.9055Z" fill="white"/>
<path d="M12.8651 28.4624C12.8651 29.1824 12.2814 29.7661 11.5613 29.7661C10.8413 29.7661 10.2576 29.1824 10.2576 28.4624V27.9993C10.2576 27.2793 10.8413 26.6956 11.5613 26.6956C12.2814 26.6956 12.8651 27.2793 12.8651 27.9993V28.4624Z" fill="white"/>
<path d="M17.5625 17.3492C17.5625 18.0693 16.9788 18.653 16.2587 18.653C15.5387 18.653 14.955 18.0693 14.955 17.3492V16.8857C14.955 16.1656 15.5387 15.5819 16.2587 15.5819C16.9788 15.5819 17.5625 16.1656 17.5625 16.8857V17.3492Z" fill="white"/>
<path d="M17.5625 22.9055C17.5625 23.6256 16.9788 24.2093 16.2587 24.2093C15.5387 24.2093 14.955 23.6256 14.955 22.9055V22.4425C14.955 21.7224 15.5387 21.1387 16.2587 21.1387C16.9788 21.1387 17.5625 21.7224 17.5625 22.4425V22.9055Z" fill="white"/>
<path d="M17.5625 28.4624C17.5625 29.1824 16.9788 29.7661 16.2587 29.7661C15.5387 29.7661 14.955 29.1824 14.955 28.4624V27.9993C14.955 27.2793 15.5387 26.6956 16.2587 26.6956C16.9788 26.6956 17.5625 27.2793 17.5625 27.9993V28.4624Z" fill="white"/>
<path d="M22.2599 17.3492C22.2599 18.0693 21.6762 18.653 20.9561 18.653C20.2361 18.653 19.6523 18.0693 19.6523 17.3492V16.8857C19.6523 16.1656 20.2361 15.5819 20.9561 15.5819C21.6762 15.5819 22.2599 16.1656 22.2599 16.8857V17.3492Z" fill="white"/>
<path d="M22.2599 22.9055C22.2599 23.6256 21.6762 24.2093 20.9561 24.2093C20.2361 24.2093 19.6523 23.6256 19.6523 22.9055V22.4425C19.6523 21.7224 20.2361 21.1387 20.9561 21.1387C21.6762 21.1387 22.2599 21.7224 22.2599 22.4425V22.9055Z" fill="white"/>
<path d="M22.2599 28.4624C22.2599 29.1824 21.6762 29.7661 20.9561 29.7661C20.2361 29.7661 19.6523 29.1824 19.6523 28.4624V27.9993C19.6523 27.2793 20.2361 26.6956 20.9561 26.6956C21.6762 26.6956 22.2599 27.2793 22.2599 27.9993V28.4624Z" fill="white"/>
<path d="M26.9573 17.3492C26.9573 18.0693 26.3735 18.653 25.6535 18.653C24.9334 18.653 24.3497 18.0693 24.3497 17.3492V16.8857C24.3497 16.1656 24.9334 15.5819 25.6535 15.5819C26.3735 15.5819 26.9573 16.1656 26.9573 16.8857V17.3492Z" fill="white"/>
<path d="M26.9573 22.9055C26.9573 23.6256 26.3735 24.2093 25.6535 24.2093C24.9334 24.2093 24.3497 23.6256 24.3497 22.9055V22.4425C24.3497 21.7224 24.9334 21.1387 25.6535 21.1387C26.3735 21.1387 26.9573 21.7224 26.9573 22.4425V22.9055Z" fill="white"/>
<path d="M26.9573 28.4624C26.9573 29.1824 26.3735 29.7661 25.6535 29.7661C24.9334 29.7661 24.3497 29.1824 24.3497 28.4624V27.9993C24.3497 27.2793 24.9334 26.6956 25.6535 26.6956C26.3735 26.6956 26.9573 27.2793 26.9573 27.9993V28.4624Z" fill="white"/>
<path d="M7.26017 8.12856C6.54312 8.12856 5.95642 7.43777 5.95642 6.59303V1.53553C5.95642 0.690787 6.54312 -2.94377e-06 7.26017 -2.94377e-06C7.97725 -2.94377e-06 8.56391 0.690787 8.56391 1.53553V6.59303C8.56391 7.43777 7.97725 8.12856 7.26017 8.12856Z" fill="white"/>
<path d="M29.9099 30.5984C29.9099 32.0604 28.9035 33.2456 27.6621 33.2456H4.85536C3.61392 33.2456 2.60753 32.0604 2.60753 30.5984V16.1024C2.60753 13.8932 4.3984 12.1024 6.60753 12.1024H25.9099C28.119 12.1024 29.9099 13.8932 29.9099 16.1024V30.5984ZM32.1371 4.33521H29.9032C28.5325 4.33521 27.4214 5.44633 27.4214 6.81696C27.4214 8.21905 26.4475 9.3657 25.2572 9.3657C24.0669 9.3657 23.093 8.21905 23.093 6.81696C23.093 5.44633 21.9819 4.33521 20.6113 4.33521H11.9061C10.5355 4.33521 9.42439 5.44633 9.42439 6.81696C9.42439 8.21905 8.45047 9.3657 7.26018 9.3657C6.06989 9.3657 5.09597 8.21905 5.09597 6.81696C5.09597 5.44633 3.98485 4.33521 2.61421 4.33521H0.380254C0.170242 4.33521 0 4.53564 0 4.78307V32.2434C0 34.1888 1.3391 35.7658 2.99101 35.7658H29.5264C31.1783 35.7658 32.5174 34.1888 32.5174 32.2434V4.78307C32.5174 4.53564 32.3471 4.33521 32.1371 4.33521Z" fill="white"/>
<path d="M25.2572 8.12856C24.5401 8.12856 23.9535 7.43777 23.9535 6.59303V1.53553C23.9535 0.690787 24.5401 -2.94377e-06 25.2572 -2.94377e-06C25.9743 -2.94377e-06 26.561 0.690787 26.561 1.53553V6.59303C26.561 7.43777 25.9743 8.12856 25.2572 8.12856Z" fill="white"/>
</svg>
