<svg xmlns="http://www.w3.org/2000/svg" id="icon-mc-heating" width="28.971" height="38.629" viewBox="0 0 28.971 38.629">
  <g id="Group_632" data-name="Group 632" transform="translate(0 0)">
    <path id="Path_3103" data-name="Path 3103" d="M92.888,22.616c-.442-5.761-3.125-9.371-5.491-12.557-2.191-2.949-4.083-5.5-4.083-9.253A.806.806,0,0,0,82.877.09a.8.8,0,0,0-.836.061A20.467,20.467,0,0,0,74.486,11.07a35.64,35.64,0,0,0-.828,8.162c-3.282-.7-4.025-5.61-4.033-5.664a.8.8,0,0,0-1.148-.611c-.172.083-4.224,2.142-4.46,10.363-.017.273-.017.548-.017.822A14.5,14.5,0,0,0,78.485,38.627a.112.112,0,0,0,.032,0h.01A14.5,14.5,0,0,0,92.971,24.142C92.971,23.741,92.888,22.616,92.888,22.616Zm-14.4,14.4a5,5,0,0,1-4.828-5.143c0-.1,0-.194.006-.314a6.524,6.524,0,0,1,.509-2.556,2.939,2.939,0,0,0,2.657,1.925.8.8,0,0,0,.8-.8,16.1,16.1,0,0,1,.309-3.66,7.782,7.782,0,0,1,1.629-3.085,10.369,10.369,0,0,0,1.659,3.044,9.169,9.169,0,0,1,2.063,5.025c.01.138.02.277.02.427A5,5,0,0,1,78.485,37.017Z" transform="translate(-64 0)" fill="#12455f"/>
  </g>
</svg>