<svg xmlns="http://www.w3.org/2000/svg" width="34.492" height="32.041" viewBox="0 0 34.492 32.041">
  <g id="icon-mc-iaq-hover" transform="translate(-1213.262 -4229.98)">
    <g id="Group_1267" data-name="Group 1267" transform="translate(1213.261 4229.98)">
      <path id="Path_5510" data-name="Path 5510" d="M146.649,230.714l-2.358-2.337a1.083,1.083,0,0,0-.579-.574l-10.468-10.374a5.024,5.024,0,0,0-7.05,0l-13.405,13.287-.01.01a1.061,1.061,0,0,0,.01,1.5,1.085,1.085,0,0,0,1.524,0l.912-.9v13.634a3.091,3.091,0,0,0,3.1,3.07h22.943a3.091,3.091,0,0,0,3.1-3.07V231.483l.747.741a1.079,1.079,0,0,0,.762.313h0a1.078,1.078,0,0,0,.762-.313l.01-.01A1.061,1.061,0,0,0,146.649,230.714Zm-26.457,6.648H129.5a3.627,3.627,0,1,1-2.271,6.455l-.007-.006a.593.593,0,0,1,.75-.919,2.44,2.44,0,1,0,1.528-4.344h-9.306a.593.593,0,1,1,0-1.187Zm-.593-4.153a.593.593,0,0,1,.593-.593h.8a.593.593,0,0,1,0,1.187h-.8A.593.593,0,0,1,119.6,233.209Zm18.393-3.175a3.044,3.044,0,0,0-4.279-.466l-.007.006a.593.593,0,0,1-.736-.931,4.247,4.247,0,0,1,2.648-.931h0a4.23,4.23,0,1,1,0,8.46H124.464a.593.593,0,1,1,0-1.187h11.155a3.043,3.043,0,0,0,2.373-4.95Zm-8.328,3.769h-6.337a.593.593,0,1,1,0-1.187h6.337a.593.593,0,1,1,0,1.187Zm-2.907,7.107H123.2a.593.593,0,1,1,0-1.187h3.56a.593.593,0,0,1,0,1.187Z" transform="translate(-112.473 -215.985)" fill="#c00"/>
    </g>
  </g>
</svg>