<svg xmlns="http://www.w3.org/2000/svg" width="269.531" height="268.053" viewBox="0 0 269.531 268.053">
  <g id="Group_3401" data-name="Group 3401" transform="translate(-426.234 -872.948)">
    <path id="Path_55147" data-name="Path 55147" d="M148.853,0,134.767,66.1,120.679,0l-.036,67.59L93.123,5.857l14.018,66.12L67.383,17.318,94.842,79.077,44.59,33.875l39.7,54.7L25.739,54.813l50.207,45.253L11.653,79.214l58.515,33.824-67.222-7.03,64.271,20.918L0,134.026l67.218,7.1L2.946,162.044l67.222-7.03L11.653,188.84l64.293-20.852L25.739,213.237,84.29,179.473l-39.7,54.7,50.251-45.2L67.383,250.736l39.757-54.659L93.123,262.195l27.52-61.731.036,67.59,14.088-66.107,14.086,66.107.034-67.59,27.525,61.731-14.02-66.118,39.755,54.659-27.456-61.759,50.251,45.2-39.7-54.7,58.551,33.764-50.2-45.249,64.293,20.852-58.517-33.826,67.222,7.03-64.269-20.918,67.214-7.1-67.214-7.1,64.269-20.918-67.222,7.03,58.517-33.824-64.293,20.852,50.2-45.253L185.242,88.577l39.7-54.7-50.251,45.2,27.456-61.759L162.392,71.977l14.02-66.12L148.888,67.59Z" transform="translate(426.234 872.947)" fill="#c00"/>
    <g id="_002-piggy-bank-1" data-name="002-piggy-bank-1" transform="translate(483.197 925.121)">
      <g id="Group_756" data-name="Group 756" transform="translate(0 36.775)">
        <g id="Group_755" data-name="Group 755">
          <path id="Path_3699" data-name="Path 3699" d="M5.343,153.7a4.558,4.558,0,0,1,6.447,6.447,9.055,9.055,0,0,0-2.671,6.447,9.4,9.4,0,0,0,9.422,9.118h.212c0-.05,0-.1,0-.147,1.878-20.558,16.745-37.132,36.5-43a27.242,27.242,0,0,0,54.374-1.576A31.821,31.821,0,0,1,132.514,121a4.559,4.559,0,0,1,4.5,5.307l-3.459,20.742a49.3,49.3,0,0,1,10.828,19.816,13.976,13.976,0,0,1,11.234,13.4v9.118a13.955,13.955,0,0,1-13.981,13.677,4.845,4.845,0,0,1-.623-.04c-.089,0-.178,0-.272.009a50.4,50.4,0,0,1-12.782,15.925v16.323a4.556,4.556,0,0,1-4.559,4.559H105.16a4.556,4.556,0,0,1-4.559-4.559v-5.319c-1.524.139-3.03.456-4.559.456H73.247v4.863a4.556,4.556,0,0,1-4.559,4.559H50.452a4.556,4.556,0,0,1-4.559-4.559v-10.33a50.1,50.1,0,0,1-27.045-40.122H18.54A18.516,18.516,0,0,1,0,166.59,18.111,18.111,0,0,1,5.343,153.7ZM123.4,175.708a4.559,4.559,0,1,0-4.559-4.559A4.559,4.559,0,0,0,123.4,175.708Zm-54.708,0H96.042a4.559,4.559,0,0,0,0-9.118H68.688a4.559,4.559,0,0,0,0,9.118Z" transform="translate(0 -121)" fill="#fff"/>
        </g>
      </g>
      <g id="Group_758" data-name="Group 758" transform="translate(64.129 27.657)">
        <g id="Group_757" data-name="Group 757" transform="translate(0)">
          <path id="Path_3700" data-name="Path 3700" d="M199.236,91A18.236,18.236,0,1,1,181,109.236,18.254,18.254,0,0,1,199.236,91Z" transform="translate(-181 -91)" fill="#fff"/>
        </g>
      </g>
      <g id="Group_760" data-name="Group 760" transform="translate(27.658 -0.001)">
        <g id="Group_759" data-name="Group 759">
          <path id="Path_3701" data-name="Path 3701" d="M319.236,0A18.236,18.236,0,1,1,301,18.236,18.254,18.254,0,0,1,319.236,0Z" transform="translate(-301)" fill="#fff"/>
        </g>
      </g>
    </g>
  </g>
</svg>