<svg xmlns="http://www.w3.org/2000/svg" id="icon-mc-water-heaters" width="21.943" height="32.041" viewBox="0 0 21.943 32.041">
  <g id="Group_897" data-name="Group 897" transform="translate(10.031 6.597)">
    <g id="Group_896" data-name="Group 896">
      <path id="Path_4469" data-name="Path 4469" d="M242.16,105.7c-.082-.1-.164-.193-.244-.276-.079.083-.162.176-.244.276a2.745,2.745,0,0,0-.7,1.631.94.94,0,0,0,1.88,0A2.745,2.745,0,0,0,242.16,105.7Z" transform="translate(-240.976 -105.42)" fill="#12455f"/>
    </g>
  </g>
  <g id="Group_899" data-name="Group 899" transform="translate(0)">
    <g id="Group_898" data-name="Group 898" transform="translate(0)">
      <path id="Path_4470" data-name="Path 4470" d="M80.68,0V21.085h21.943V0ZM91.1,4.576l.549-.4.549.4c.093.067,2.268,1.663,2.268,3.928a2.818,2.818,0,0,1-5.635,0C88.834,6.239,91.01,4.643,91.1,4.576ZM94.994,19.2H88.309V17.327h6.684Z" transform="translate(-80.68)" fill="#12455f"/>
    </g>
  </g>
  <g id="Group_901" data-name="Group 901" transform="translate(0 22.963)">
    <g id="Group_900" data-name="Group 900" transform="translate(0)">
      <path id="Path_4471" data-name="Path 4471" d="M80.68,366.936v4.011l4.893,2.561h1.8v2.506h1.877v-2.506h4.807v2.506h1.877v-2.506h1.8l4.893-2.561v-4.011Z" transform="translate(-80.68 -366.936)" fill="#12455f"/>
    </g>
  </g>
</svg>