<svg xmlns="http://www.w3.org/2000/svg" fill="none" viewBox="18.84 7.26 79.46 100.91">
<mask id="path-1-outside-1_73_188" maskUnits="userSpaceOnUse" x="44.8191" y="24.8103" width="21" height="58" fill="black">
<rect fill="white" x="44.8191" y="24.8103" width="21" height="58"/>
<path d="M52.8191 81.8103V39.4353C52.0691 40.3311 51.0378 41.0603 49.7253 41.6228C48.4128 42.1645 47.1733 42.4353 46.0066 42.4353V33.6541C47.1108 33.4874 48.2983 33.1332 49.5691 32.5916C50.8399 32.0291 52.017 31.2686 53.1003 30.3103C54.2045 29.3311 55.0483 28.1541 55.6316 26.7791H64.4753V81.8103H52.8191Z"/>
</mask>
<path d="M52.8191 81.8103V39.4353C52.0691 40.3311 51.0378 41.0603 49.7253 41.6228C48.4128 42.1645 47.1733 42.4353 46.0066 42.4353V33.6541C47.1108 33.4874 48.2983 33.1332 49.5691 32.5916C50.8399 32.0291 52.017 31.2686 53.1003 30.3103C54.2045 29.3311 55.0483 28.1541 55.6316 26.7791H64.4753V81.8103H52.8191Z" fill="#0F3460"/>
<path d="M52.8191 81.8103H51.8191V82.8103H52.8191V81.8103ZM52.8191 39.4353H53.8191V36.6831L52.0523 38.7934L52.8191 39.4353ZM49.7253 41.6228L50.1069 42.5473L50.1193 42.5419L49.7253 41.6228ZM46.0066 42.4353H45.0066V43.4353H46.0066V42.4353ZM46.0066 33.6541L45.8573 32.6653L45.0066 32.7937V33.6541H46.0066ZM49.5691 32.5916L49.9612 33.5116L49.9738 33.506L49.5691 32.5916ZM53.1003 30.3103L53.7629 31.0593L53.7638 31.0585L53.1003 30.3103ZM55.6316 26.7791V25.7791H54.9696L54.711 26.3885L55.6316 26.7791ZM64.4753 26.7791H65.4753V25.7791H64.4753V26.7791ZM64.4753 81.8103V82.8103H65.4753V81.8103H64.4753ZM53.8191 81.8103V39.4353H51.8191V81.8103H53.8191ZM52.0523 38.7934C51.4231 39.545 50.5312 40.1895 49.3314 40.7037L50.1193 42.5419C51.5445 41.9311 52.7151 41.1173 53.5858 40.0772L52.0523 38.7934ZM49.3439 40.6984C48.1268 41.2007 47.0173 41.4353 46.0066 41.4353V43.4353C47.3292 43.4353 48.6989 43.1282 50.1068 42.5472L49.3439 40.6984ZM47.0066 42.4353V33.6541H45.0066V42.4353H47.0066ZM46.1558 34.6429C47.3605 34.461 48.6302 34.0788 49.9612 33.5115L49.177 31.6716C47.9663 32.1877 46.861 32.5138 45.8573 32.6653L46.1558 34.6429ZM49.9738 33.506C51.3424 32.9002 52.6058 32.0829 53.7629 31.0593L52.4378 29.5613C51.4282 30.4544 50.3375 31.1579 49.1643 31.6771L49.9738 33.506ZM53.7638 31.0585C54.9806 29.9795 55.9115 28.6797 56.5522 27.1696L54.711 26.3885C54.185 27.6284 53.4284 28.6828 52.4369 29.5621L53.7638 31.0585ZM55.6316 27.7791H64.4753V25.7791H55.6316V27.7791ZM63.4753 26.7791V81.8103H65.4753V26.7791H63.4753ZM64.4753 80.8103H52.8191V82.8103H64.4753V80.8103Z" fill="#0F3460" mask="url(#path-1-outside-1_73_188)"/>
<path d="M97.8021 26.1795L94.6244 81.3766L58.1374 107.667M97.8021 26.1795L58.6847 49.5855M97.8021 26.1795L52.8578 7.75794L19.3398 26.6349M58.1374 107.667L58.6847 49.5855M58.1374 107.667L20.8283 78.0578L19.3398 26.6349M58.6847 49.5855L19.3398 26.6349" stroke="#0F3460"/>
</svg>