<?xml version="1.0" encoding="UTF-8"?> <svg xmlns="http://www.w3.org/2000/svg" width="53.571" height="71.428" viewBox="0 0 53.571 71.428"><path id="Icon_awesome-clipboard-list" data-name="Icon awesome-clipboard-list" d="M46.874,8.928H35.714a8.928,8.928,0,0,0-17.857,0H6.7a6.7,6.7,0,0,0-6.7,6.7V64.731a6.7,6.7,0,0,0,6.7,6.7H46.874a6.7,6.7,0,0,0,6.7-6.7V15.625A6.7,6.7,0,0,0,46.874,8.928ZM13.393,59.151A3.348,3.348,0,1,1,16.741,55.8,3.34,3.34,0,0,1,13.393,59.151Zm0-13.393a3.348,3.348,0,1,1,3.348-3.348A3.34,3.34,0,0,1,13.393,45.758Zm0-13.393a3.348,3.348,0,1,1,3.348-3.348A3.34,3.34,0,0,1,13.393,32.366ZM26.785,5.58a3.348,3.348,0,1,1-3.348,3.348A3.34,3.34,0,0,1,26.785,5.58ZM44.642,56.919a1.119,1.119,0,0,1-1.116,1.116H23.437a1.119,1.119,0,0,1-1.116-1.116V54.687a1.119,1.119,0,0,1,1.116-1.116H43.526a1.119,1.119,0,0,1,1.116,1.116Zm0-13.393a1.119,1.119,0,0,1-1.116,1.116H23.437a1.119,1.119,0,0,1-1.116-1.116V41.294a1.119,1.119,0,0,1,1.116-1.116H43.526a1.119,1.119,0,0,1,1.116,1.116Zm0-13.393a1.119,1.119,0,0,1-1.116,1.116H23.437a1.119,1.119,0,0,1-1.116-1.116V27.9a1.119,1.119,0,0,1,1.116-1.116H43.526A1.119,1.119,0,0,1,44.642,27.9Z" fill="#c00"></path></svg> 