<?xml version="1.0" encoding="UTF-8"?> <svg xmlns="http://www.w3.org/2000/svg" width="74" height="71.428" viewBox="0 0 74 71.428"><g id="Group_3220" data-name="Group 3220" transform="translate(-519.001 -1160.779)"><path id="Shape" d="M26.236,35.7c-5.817-5.817-7.13-11.634-7.427-13.964a2.089,2.089,0,0,1,.6-1.748l4.707-4.705a2.1,2.1,0,0,0,.3-2.6l-7.5-11.635A2.1,2.1,0,0,0,14.2.282L2.163,5.948A2.09,2.09,0,0,0,1.008,8.036c.63,5.989,3.242,20.712,17.71,35.182S47.908,60.3,53.9,60.929a2.09,2.09,0,0,0,2.088-1.156l5.667-12.032a2.1,2.1,0,0,0-.762-2.718L49.255,37.53a2.1,2.1,0,0,0-2.6.294l-4.7,4.707a2.089,2.089,0,0,1-1.748.6c-2.331-.3-8.148-1.61-13.964-7.427Z" transform="translate(518.004 1171.267)" fill="#c00"></path><g id="Icon_ionic-ios-mail" data-name="Icon ionic-ios-mail" transform="translate(551.424 1160.779)"><path id="Path_55155" data-name="Path 55155" d="M44.611,10.375,33.857,21.329a.193.193,0,0,0,0,.28l7.526,8.015a1.3,1.3,0,0,1-1.839,1.839l-7.5-7.985a.2.2,0,0,0-.29,0l-1.829,1.859a8.047,8.047,0,0,1-5.737,2.419,8.208,8.208,0,0,1-5.857-2.489l-1.759-1.789a.2.2,0,0,0-.29,0l-7.5,7.985a1.3,1.3,0,0,1-1.839-1.839l7.526-8.015a.213.213,0,0,0,0-.28L3.715,10.375a.2.2,0,0,0-.34.14V32.432a3.208,3.208,0,0,0,3.2,3.2H41.752a3.208,3.208,0,0,0,3.2-3.2V10.515a.2.2,0,0,0-.341-.14Z" transform="translate(-3.375 -6.847)" fill="#c00"></path><path id="Path_55156" data-name="Path 55156" d="M23.8,26.174a5.433,5.433,0,0,0,3.908-1.639L43.393,8.575a3.141,3.141,0,0,0-1.979-.7H6.2a3.12,3.12,0,0,0-1.979.7l15.686,15.96A5.434,5.434,0,0,0,23.8,26.174Z" transform="translate(-3.016 -7.875)" fill="#c00"></path></g></g></svg> 