<?xml version="1.0" encoding="UTF-8"?> <svg xmlns="http://www.w3.org/2000/svg" width="71.428" height="71.428" viewBox="0 0 71.428 71.428"><path id="Icon_ionic-ios-happy" data-name="Icon ionic-ios-happy" d="M39.089,3.375A35.714,35.714,0,1,0,74.8,39.089,35.708,35.708,0,0,0,39.089,3.375Zm12.362,26.1a4.121,4.121,0,1,1-4.121,4.121A4.111,4.111,0,0,1,51.451,29.474Zm-24.725,0a4.121,4.121,0,1,1-4.121,4.121A4.111,4.111,0,0,1,26.726,29.474ZM39.089,58.491A16.858,16.858,0,0,1,22.915,46.352a1.379,1.379,0,0,1,1.322-1.769H53.924a1.381,1.381,0,0,1,1.322,1.769A16.821,16.821,0,0,1,39.089,58.491Z" transform="translate(-3.375 -3.375)" fill="#c00"></path></svg> 