<svg width="59" height="33" viewBox="0 0 59 33" fill="none" xmlns="http://www.w3.org/2000/svg">
<path d="M12.2822 27.0899H11.4311C11.4138 27.0899 11.3987 27.1018 11.395 27.1188C11.3374 27.3888 10.8994 29.4527 10.8751 29.6258C10.8732 29.6388 10.8651 29.6388 10.8633 29.6258C10.8359 29.4527 10.3622 27.3859 10.3009 27.1181C10.2972 27.1014 10.2821 27.0895 10.2651 27.0895H9.47087C9.45352 27.0895 9.43875 27.101 9.43506 27.1181C9.3734 27.3855 8.89819 29.4527 8.8716 29.6258C8.86902 29.6418 8.85979 29.6418 8.8572 29.6258C8.8321 29.4527 8.39566 27.3892 8.33843 27.1188C8.33473 27.1018 8.31997 27.0895 8.30224 27.0895H7.45115C7.42678 27.0895 7.40906 27.1125 7.41534 27.1363L8.34101 30.6175C8.34544 30.6338 8.35984 30.645 8.37683 30.645H9.27186C9.28884 30.645 9.30361 30.6335 9.30767 30.6168C9.3638 30.3791 9.7574 28.7132 9.84639 28.3234C9.85082 28.3041 9.87777 28.3041 9.8822 28.3234C9.9723 28.7128 10.3707 30.3794 10.4272 30.6168C10.4313 30.6335 10.446 30.645 10.463 30.645H11.3558C11.3724 30.645 11.3872 30.6338 11.3916 30.6175L12.3173 27.1363C12.3236 27.1129 12.3059 27.0895 12.2815 27.0895L12.2822 27.0899Z" fill="#002447"/>
<path d="M15.0364 27.2449C14.8433 27.1415 14.6136 27.0899 14.3474 27.0899H12.9712C12.9509 27.0899 12.9343 27.1066 12.9343 27.127V30.6082C12.9343 30.6286 12.9509 30.6453 12.9712 30.6453H13.7359C13.7562 30.6453 13.7728 30.6286 13.7728 30.6082V29.5357H14.3234C14.594 29.5357 14.8278 29.4849 15.0242 29.3829C15.2206 29.2813 15.372 29.1396 15.478 28.9583C15.584 28.7769 15.6371 28.5637 15.6371 28.3189C15.6371 28.0742 15.5851 27.8617 15.4813 27.677C15.3775 27.4923 15.2291 27.3484 15.036 27.2449H15.0364ZM14.7738 28.6075C14.7295 28.6902 14.6631 28.7547 14.5741 28.8007C14.4855 28.8467 14.3754 28.87 14.244 28.87H13.7732V27.7723H14.2418C14.3732 27.7723 14.4836 27.7945 14.573 27.839C14.6623 27.8835 14.7292 27.947 14.7738 28.0289C14.8182 28.1109 14.8403 28.2077 14.8403 28.3189C14.8403 28.4302 14.8182 28.5251 14.7738 28.6078V28.6075Z" fill="#002447"/>
<path d="M19.5193 27.5297C19.3815 27.3903 19.2265 27.2865 19.054 27.2182C18.8816 27.15 18.7021 27.1159 18.5157 27.1159C18.2196 27.1159 17.9596 27.1923 17.7359 27.3451C17.5117 27.4979 17.3375 27.7074 17.213 27.974C17.0882 28.2407 17.0262 28.5463 17.0262 28.8901C17.0262 29.2338 17.0897 29.5387 17.2163 29.8031C17.343 30.0679 17.5224 30.2748 17.7547 30.4247C17.9869 30.5741 18.262 30.649 18.5803 30.649C18.8092 30.649 19.0119 30.612 19.1884 30.5374C19.3649 30.4632 19.5111 30.365 19.6278 30.2426C19.7342 30.131 19.8139 30.0112 19.8671 29.8828C19.8752 29.8628 19.8641 29.8402 19.8438 29.8335L19.5211 29.7304C19.503 29.7249 19.4842 29.7338 19.4764 29.7508C19.4362 29.8391 19.3793 29.921 19.3055 29.9967C19.2235 30.0813 19.122 30.1491 19.0016 30.1999C18.8809 30.2507 18.7417 30.2763 18.5836 30.2763C18.3506 30.2763 18.1483 30.2211 17.977 30.1098C17.8056 29.9989 17.6735 29.8432 17.58 29.6425C17.4929 29.4552 17.4471 29.2387 17.4412 28.9935H19.9269C19.9472 28.9935 19.9638 28.9768 19.9638 28.9564V28.8133C19.9638 28.5244 19.9243 28.2729 19.8453 28.059C19.7663 27.8453 19.6577 27.6684 19.52 27.529L19.5193 27.5297ZM17.5752 28.1113C17.6653 27.924 17.7912 27.7734 17.9522 27.6592C18.1132 27.5453 18.3015 27.4882 18.5164 27.4882C18.7313 27.4882 18.9189 27.5442 19.0729 27.6562C19.2268 27.7682 19.3454 27.921 19.4284 28.1142C19.496 28.2715 19.5359 28.4458 19.5484 28.6364H17.4427C17.4534 28.4476 17.4973 28.2726 17.5752 28.1113Z" fill="#002447"/>
<path d="M22.7722 27.2609C22.5991 27.1641 22.3967 27.1159 22.1656 27.1159C21.9082 27.1159 21.6797 27.1819 21.4799 27.3143C21.3204 27.42 21.1952 27.5791 21.1037 27.7901L21.1014 27.1986C21.1014 27.1782 21.0848 27.1615 21.0645 27.1615H20.74C20.7197 27.1615 20.703 27.1782 20.703 27.1986V30.5385C20.703 30.5589 20.7197 30.5756 20.74 30.5756H21.0797C21.1 30.5756 21.1166 30.5589 21.1166 30.5385V28.4473C21.1166 28.2518 21.1576 28.0823 21.2395 27.9388C21.3215 27.7953 21.4338 27.6855 21.5755 27.6091C21.7173 27.5327 21.8776 27.4945 22.0559 27.4945C22.3173 27.4945 22.526 27.5754 22.6821 27.7374C22.8383 27.8991 22.9162 28.1198 22.9162 28.3987V30.5389C22.9162 30.5593 22.9329 30.576 22.9532 30.576H23.2899C23.3102 30.576 23.3268 30.5593 23.3268 30.5389V28.3683C23.3268 28.0975 23.2777 27.8695 23.1795 27.684C23.0813 27.499 22.9454 27.3577 22.7722 27.2612V27.2609Z" fill="#002447"/>
<path d="M26.8918 27.1615H26.5643C26.544 27.1615 26.5274 27.1782 26.5274 27.1986V27.8179H26.4849C26.4402 27.7141 26.376 27.6076 26.2918 27.499C26.2076 27.3899 26.0968 27.2991 25.9587 27.2256C25.821 27.1522 25.6486 27.1159 25.4418 27.1159C25.1642 27.1159 24.9197 27.1893 24.7089 27.3358C24.4981 27.4823 24.3337 27.6866 24.2163 27.9481C24.0989 28.2095 24.0398 28.5147 24.0398 28.8626C24.0398 29.2105 24.0996 29.5101 24.2193 29.7605C24.3389 30.0108 24.5036 30.2033 24.7133 30.3375C24.923 30.4718 25.1627 30.5389 25.4322 30.5389C25.6349 30.5389 25.8051 30.5059 25.9429 30.4395C26.0806 30.3735 26.1928 30.2889 26.2789 30.1862C26.3649 30.0835 26.4303 29.9789 26.4749 29.8732H26.5145V30.6398C26.5145 30.9531 26.4232 31.1849 26.2408 31.3344C26.0584 31.4842 25.8173 31.5588 25.5171 31.5588C25.3285 31.5588 25.1693 31.5328 25.0397 31.4809C24.9101 31.429 24.8041 31.3618 24.7218 31.2795C24.6498 31.2072 24.5907 31.133 24.5446 31.0566C24.5339 31.0392 24.5113 31.0333 24.494 31.0436L24.2152 31.2135C24.1986 31.2239 24.1923 31.2454 24.2016 31.2628C24.2669 31.3845 24.3548 31.4931 24.4652 31.5892C24.5848 31.693 24.7321 31.775 24.9075 31.835C25.0829 31.8951 25.286 31.9252 25.5171 31.9252C25.7889 31.9252 26.0311 31.8799 26.2438 31.7894C26.4565 31.6989 26.6237 31.5599 26.7456 31.3726C26.8671 31.1853 26.928 30.9472 26.928 30.6579V27.1986C26.928 27.1782 26.9114 27.1615 26.8911 27.1615H26.8918ZM26.4 29.5572C26.3188 29.7538 26.2017 29.9044 26.0488 30.0093C25.8956 30.1143 25.711 30.1666 25.4939 30.1666C25.2768 30.1666 25.0855 30.1113 24.9315 30C24.7776 29.8892 24.6598 29.7349 24.5789 29.5376C24.4977 29.3403 24.4574 29.1122 24.4574 28.8533C24.4574 28.5945 24.4973 28.369 24.5774 28.1632C24.6576 27.9577 24.7746 27.7942 24.9286 27.6729C25.0826 27.5516 25.2712 27.4912 25.4942 27.4912C25.7173 27.4912 25.9015 27.5498 26.0536 27.6666C26.2058 27.7838 26.3217 27.9444 26.4018 28.1491C26.482 28.3538 26.5218 28.5882 26.5218 28.853C26.5218 29.1178 26.4812 29.3603 26.4004 29.5569L26.4 29.5572Z" fill="#002447"/>
<path d="M28.3695 27.1615H28.0298C28.0094 27.1615 27.9929 27.1781 27.9929 27.1986V30.5385C27.9929 30.559 28.0094 30.5756 28.0298 30.5756H28.3695C28.3899 30.5756 28.4064 30.559 28.4064 30.5385V27.1986C28.4064 27.1781 28.3899 27.1615 28.3695 27.1615Z" fill="#002447"/>
<path d="M28.1996 26.6775C28.3287 26.6775 28.4334 26.5724 28.4334 26.4428C28.4334 26.3131 28.3287 26.208 28.1996 26.208C28.0706 26.208 27.9659 26.3131 27.9659 26.4428C27.9659 26.5724 28.0706 26.6775 28.1996 26.6775Z" fill="#002447"/>
<path d="M31.57 27.2609C31.3969 27.1641 31.1945 27.1159 30.9634 27.1159C30.706 27.1159 30.4775 27.1819 30.2777 27.3143C30.1182 27.42 29.993 27.5791 29.9015 27.7901L29.8992 27.1986C29.8992 27.1782 29.8826 27.1615 29.8623 27.1615H29.5378C29.5174 27.1615 29.5008 27.1782 29.5008 27.1986V30.5385C29.5008 30.5589 29.5174 30.5756 29.5378 30.5756H29.8775C29.8978 30.5756 29.9144 30.5589 29.9144 30.5385V28.4473C29.9144 28.2518 29.9554 28.0823 30.0373 27.9388C30.1193 27.7953 30.2316 27.6855 30.3733 27.6091C30.5151 27.5327 30.6754 27.4945 30.8537 27.4945C31.1151 27.4945 31.3238 27.5754 31.4799 27.7374C31.6361 27.8991 31.714 28.1198 31.714 28.3987V30.5389C31.714 30.5593 31.7307 30.576 31.751 30.576H32.0877C32.108 30.576 32.1246 30.5593 32.1246 30.5389V28.3683C32.1246 28.0975 32.0755 27.8695 31.9773 27.684C31.8791 27.499 31.7432 27.3577 31.57 27.2612V27.2609Z" fill="#002447"/>
<path d="M35.354 27.5297C35.2162 27.3903 35.0612 27.2865 34.8887 27.2182C34.7163 27.15 34.5368 27.1159 34.3504 27.1159C34.0543 27.1159 33.7943 27.1923 33.5706 27.3451C33.3464 27.4979 33.1721 27.7074 33.0477 27.974C32.9229 28.2407 32.8609 28.5463 32.8609 28.8901C32.8609 29.2338 32.9244 29.5387 33.051 29.8031C33.1777 30.0679 33.3571 30.2748 33.5894 30.4247C33.8216 30.5741 34.0967 30.649 34.415 30.649C34.6439 30.649 34.8466 30.612 35.0231 30.5374C35.1996 30.4632 35.3458 30.365 35.4625 30.2426C35.5689 30.131 35.6486 30.0112 35.7018 29.8828C35.7099 29.8628 35.6988 29.8402 35.6785 29.8335L35.3558 29.7304C35.3377 29.7249 35.3189 29.7338 35.3111 29.7508C35.2709 29.8391 35.214 29.921 35.1402 29.9967C35.0582 30.0813 34.9567 30.1491 34.8363 30.1999C34.7156 30.2507 34.5764 30.2763 34.4183 30.2763C34.1853 30.2763 33.983 30.2211 33.8117 30.1098C33.6403 29.9989 33.5082 29.8432 33.4147 29.6425C33.3276 29.4552 33.2818 29.2387 33.2759 28.9935H35.7616C35.7819 28.9935 35.7985 28.9768 35.7985 28.9564V28.8133C35.7985 28.5244 35.759 28.2729 35.68 28.059C35.601 27.8453 35.4924 27.6684 35.3547 27.529L35.354 27.5297ZM33.4096 28.1113C33.4997 27.924 33.6256 27.7734 33.7866 27.6592C33.9475 27.5453 34.1359 27.4882 34.3507 27.4882C34.5656 27.4882 34.7532 27.5442 34.9072 27.6562C35.0612 27.7682 35.1797 27.921 35.2628 28.1142C35.3303 28.2715 35.3702 28.4458 35.3828 28.6364H33.277C33.2877 28.4476 33.3317 28.2726 33.4096 28.1113Z" fill="#002447"/>
<path d="M2.64296 27.1419C2.62915 27.1194 2.64531 27.0903 2.67168 27.0903H3.0831C3.09499 27.0903 3.10601 27.0966 3.11208 27.1069L4.07428 28.7335C4.08036 28.7438 4.09137 28.7501 4.10327 28.7501H4.10638C4.11827 28.7501 4.12929 28.7438 4.13536 28.7335L5.09756 27.1069C5.10364 27.0966 5.11465 27.0903 5.12655 27.0903H5.53797C5.56433 27.0903 5.5805 27.1194 5.56669 27.1419L4.32415 29.1725C4.32089 29.1778 4.31916 29.1839 4.31916 29.1902V30.612C4.31916 30.6307 4.30406 30.6459 4.28544 30.6459H3.9242C3.90558 30.6459 3.89049 30.6307 3.89049 30.612V29.1902C3.89049 29.1839 3.88876 29.1778 3.8855 29.1725L2.64296 27.1419Z" fill="#002447"/>
<path d="M0.0337143 30.6459C0.0150944 30.6459 0 30.6307 0 30.612V27.1242C0 27.1055 0.0150944 27.0903 0.0337143 27.0903H1.23762C1.48422 27.0903 1.68761 27.1332 1.84778 27.2188C2.00796 27.3033 2.12723 27.4173 2.20559 27.5608C2.28395 27.7032 2.32312 27.8612 2.32312 28.0348C2.32312 28.1876 2.29604 28.3137 2.24188 28.4132C2.18888 28.5128 2.11858 28.5915 2.03101 28.6494C1.94884 28.7044 1.8599 28.7458 1.76419 28.7736C1.7554 28.7762 1.74926 28.7842 1.74926 28.7934C1.74926 28.8042 1.75759 28.813 1.76825 28.8141C1.87031 28.8241 1.97287 28.8618 2.07595 28.9271C2.18542 28.9966 2.27703 29.0961 2.35078 29.2257C2.42453 29.3554 2.46141 29.5139 2.46141 29.7014C2.46141 29.8797 2.42107 30.04 2.34041 30.1823C2.25975 30.3247 2.13241 30.4376 1.95841 30.5209C1.7844 30.6042 1.55797 30.6459 1.2791 30.6459H0.0337143ZM0.428672 30.2301C0.428672 30.2488 0.443766 30.2639 0.462386 30.2639H1.2791C1.55912 30.2639 1.7579 30.2095 1.87544 30.1007C1.99413 29.9908 2.05348 29.8577 2.05348 29.7014C2.05348 29.5811 2.02294 29.47 1.96187 29.3681C1.90079 29.2651 1.81379 29.1829 1.70086 29.1216C1.58793 29.0591 1.45426 29.0278 1.29984 29.0278H0.462386C0.443766 29.0278 0.428672 29.043 0.428672 29.0617V30.2301ZM0.428672 28.619C0.428672 28.6377 0.443766 28.6528 0.462386 28.6528H1.22379C1.35285 28.6528 1.46924 28.6274 1.57295 28.5764C1.67781 28.5255 1.76078 28.4538 1.82186 28.3612C1.88408 28.2686 1.91519 28.1598 1.91519 28.0348C1.91519 27.8785 1.86103 27.746 1.75271 27.6372C1.64439 27.5273 1.4727 27.4723 1.23762 27.4723H0.462386C0.443766 27.4723 0.428672 27.4874 0.428672 27.5061V28.619Z" fill="#002447"/>
<path d="M54.1046 20.1174C54.0519 20.1719 53.9598 20.1345 53.9598 20.0584V18.3809C53.9598 18.3342 53.9976 18.2963 54.0441 18.2963H54.0885C54.1115 18.2963 54.1334 18.2869 54.1493 18.2703L56.8059 15.4916C56.8218 15.475 56.8438 15.4656 56.8667 15.4656H58.631C58.7049 15.4656 58.743 15.5542 58.6924 15.6082L55.6244 18.8847C55.6085 18.9017 55.5863 18.9114 55.563 18.9114H55.3058C55.2831 18.9114 55.2612 18.9206 55.2454 18.937L54.1046 20.1174ZM52.5296 22.4497C52.483 22.4497 52.4453 22.4118 52.4453 22.3651V12.6799C52.4453 12.6331 52.483 12.5952 52.5296 12.5952H54.0204C54.067 12.5952 54.1047 12.6331 54.1047 12.6799V22.3651C54.1047 22.4118 54.067 22.4497 54.0204 22.4497H52.5296ZM57.0569 22.4497C57.0306 22.4497 57.0058 22.4374 56.9899 22.4165L54.6491 19.3396C54.6238 19.3063 54.6265 19.2595 54.6555 19.2294L55.6562 18.1887C55.6921 18.1514 55.7528 18.155 55.784 18.1964L58.8946 22.3139C58.9367 22.3696 58.8971 22.4497 58.8275 22.4497H57.0569Z" fill="#1B004E"/>
<path d="M48.1712 22.6082C47.4952 22.6082 46.9003 22.4539 46.3867 22.1453C45.8775 21.8366 45.4802 21.4089 45.1949 20.8622C44.9139 20.3155 44.7734 19.6827 44.7734 18.964C44.7734 18.2454 44.9139 17.6126 45.1949 17.0659C45.4802 16.5148 45.8775 16.0849 46.3867 15.7762C46.9003 15.4632 47.4952 15.3066 48.1712 15.3066C48.6102 15.3066 49.0141 15.3728 49.3828 15.5051C49.7516 15.6329 50.0742 15.8159 50.3508 16.054C50.6273 16.2921 50.849 16.5743 51.0158 16.9006C51.1734 17.1968 51.2733 17.521 51.3156 17.8732C51.3216 17.9226 51.2826 17.9654 51.233 17.9654H49.7706C49.7292 17.9654 49.6942 17.9352 49.6861 17.8945C49.6539 17.7327 49.6033 17.5844 49.5343 17.4495C49.4552 17.2952 49.3499 17.1629 49.2182 17.0527C49.0909 16.938 48.9416 16.8499 48.7704 16.7881C48.5992 16.7264 48.4061 16.6955 48.191 16.6955C47.831 16.6955 47.5193 16.7881 47.2559 16.9733C46.9969 17.1585 46.7972 17.4208 46.6567 17.7603C46.5206 18.0999 46.4526 18.5011 46.4526 18.964C46.4526 19.4226 46.5206 19.8216 46.6567 20.1611C46.7972 20.4962 46.9969 20.7564 47.2559 20.9416C47.5149 21.1267 47.8266 21.2193 48.191 21.2193C48.4061 21.2193 48.597 21.1907 48.7638 21.1334C48.935 21.0716 49.0821 20.9857 49.205 20.8754C49.3279 20.7608 49.4289 20.6241 49.5079 20.4654C49.5775 20.3256 49.6318 20.1738 49.6708 20.01C49.68 19.971 49.7143 19.9429 49.7542 19.9429H51.234C51.2832 19.9429 51.3221 19.9851 51.3167 20.0342C51.2784 20.383 51.1825 20.7075 51.029 21.0077C50.8666 21.3296 50.6449 21.6118 50.364 21.8543C50.083 22.0924 49.756 22.2775 49.3828 22.4098C49.0141 22.5421 48.6102 22.6082 48.1712 22.6082Z" fill="#1B004E"/>
<path d="M40.091 22.5621C39.63 22.5621 39.2174 22.4849 38.853 22.3306C38.493 22.1763 38.2077 21.9426 37.997 21.6296C37.7907 21.3165 37.6875 20.9285 37.6875 20.4655C37.6875 20.0687 37.7621 19.7424 37.9114 19.4867C38.0606 19.2266 38.2626 19.0193 38.5172 18.865C38.7718 18.7107 39.0637 18.5939 39.393 18.5145C39.7222 18.4307 40.0646 18.3712 40.4202 18.3359C40.8504 18.2874 41.1906 18.2455 41.4408 18.2103C41.6955 18.1706 41.8776 18.1155 41.9874 18.0449C42.0971 17.97 42.152 17.8531 42.152 17.6944V17.6415C42.152 17.4387 42.1015 17.2623 42.0006 17.1124C41.8996 16.9581 41.7525 16.839 41.5594 16.7552C41.3706 16.667 41.1445 16.623 40.8811 16.623C40.6134 16.623 40.3763 16.667 40.17 16.7552C39.968 16.839 39.8078 16.9581 39.6893 17.1124C39.5863 17.2426 39.5214 17.3912 39.4947 17.558C39.4877 17.6013 39.4517 17.6349 39.408 17.6349H37.9751C37.9264 17.6349 37.8877 17.5934 37.8925 17.5447C37.9343 17.1193 38.0702 16.7459 38.2999 16.4245C38.5501 16.0762 38.8969 15.8073 39.3403 15.6177C39.7837 15.4237 40.3083 15.3267 40.9141 15.3267C41.3662 15.3267 41.7701 15.3818 42.1257 15.492C42.4856 15.5978 42.7885 15.7543 43.0344 15.9616C43.2846 16.1688 43.4734 16.4179 43.6007 16.7089C43.7324 16.9999 43.7982 17.3262 43.7982 17.6878V22.365C43.7982 22.4118 43.7605 22.4497 43.7139 22.4497H42.2495C42.2029 22.4497 42.1652 22.4118 42.1652 22.365V21.4808C42.1652 21.4716 42.1578 21.4642 42.1487 21.4642C42.1426 21.4642 42.1371 21.4676 42.1342 21.473C42.0251 21.6767 41.8839 21.8612 41.7108 22.0264C41.5352 22.1895 41.3157 22.3196 41.0523 22.4166C40.789 22.5136 40.4685 22.5621 40.091 22.5621ZM40.4992 21.3253C40.8636 21.3253 41.1687 21.2592 41.4145 21.1269C41.6603 20.9946 41.8447 20.8183 41.9676 20.5978C42.0949 20.3774 42.1586 20.1327 42.1586 19.8637V19.2571C42.1586 19.1918 42.086 19.1476 42.0249 19.17C41.9956 19.1808 41.9633 19.1916 41.9281 19.2023C41.8272 19.2332 41.7064 19.264 41.566 19.2949C41.4299 19.3214 41.2806 19.3478 41.1182 19.3743C40.9602 19.4007 40.7955 19.4272 40.6243 19.4536C40.3873 19.4845 40.1678 19.5396 39.9658 19.619C39.7683 19.6939 39.6081 19.7998 39.4852 19.9364C39.3666 20.0687 39.3074 20.2407 39.3074 20.4523C39.3074 20.6331 39.3557 20.7896 39.4522 20.9219C39.5532 21.0542 39.6915 21.1556 39.8671 21.2261C40.0471 21.2923 40.2578 21.3253 40.4992 21.3253Z" fill="#1B004E"/>
<path d="M30.178 22.4497C30.1315 22.4497 30.0938 22.4118 30.0938 22.3651V12.6799C30.0938 12.6331 30.1315 12.5952 30.178 12.5952H33.8405C34.5605 12.5952 35.1816 12.7231 35.704 12.9788C36.2308 13.2345 36.6347 13.5983 36.9156 14.0701C37.201 14.5419 37.3436 15.0996 37.3436 15.7434C37.3436 16.3915 37.1988 16.9515 36.909 17.4233C36.6193 17.895 36.2089 18.261 35.6777 18.5211C35.1509 18.7769 34.5275 18.9047 33.8076 18.9047H31.1197C31.0731 18.9047 31.0354 18.8668 31.0354 18.8201V17.4947C31.0354 17.4479 31.0731 17.41 31.1197 17.41H33.7417C34.1324 17.41 34.4683 17.3439 34.7492 17.2116C35.0346 17.0749 35.2519 16.8831 35.4011 16.6362C35.5548 16.3849 35.6316 16.0873 35.6316 15.7434C35.6316 15.3994 35.5548 15.1062 35.4011 14.8637C35.2519 14.6168 35.0346 14.4272 34.7492 14.295C34.4683 14.1583 34.1324 14.0899 33.7417 14.0899H31.9164C31.8699 14.0899 31.8321 14.1278 31.8321 14.1746V22.3651C31.8321 22.4118 31.7944 22.4497 31.7479 22.4497H30.178Z" fill="#1B004E"/>
<path d="M25.4307 22.6082C24.7503 22.6082 24.151 22.4561 23.633 22.1519C23.1194 21.8432 22.7177 21.4155 22.428 20.8688C22.1427 20.3221 22 19.6872 22 18.964C22 18.2409 22.1427 17.606 22.428 17.0593C22.7177 16.5081 23.1194 16.0782 23.633 15.7696C24.151 15.461 24.7503 15.3066 25.4307 15.3066C26.1155 15.3066 26.7147 15.461 27.2283 15.7696C27.742 16.0782 28.1414 16.5081 28.4268 17.0593C28.7165 17.606 28.8614 18.2409 28.8614 18.964C28.8614 19.6872 28.7165 20.3221 28.4268 20.8688C28.1414 21.4155 27.742 21.8432 27.2283 22.1519C26.7147 22.4561 26.1155 22.6082 25.4307 22.6082ZM25.4307 21.2127C25.7863 21.2127 26.0936 21.1223 26.3526 20.9416C26.616 20.7608 26.8179 20.5028 26.9584 20.1678C27.1032 19.8282 27.1757 19.427 27.1757 18.964C27.1757 18.4967 27.1032 18.0954 26.9584 17.7603C26.8179 17.4208 26.616 17.1607 26.3526 16.9799C26.0936 16.7947 25.7863 16.7021 25.4307 16.7021C25.0751 16.7021 24.7656 16.7947 24.5022 16.9799C24.2388 17.1607 24.0347 17.4208 23.8898 17.7603C23.7494 18.0954 23.6791 18.4967 23.6791 18.964C23.6791 19.4314 23.7494 19.8327 23.8898 20.1678C24.0347 20.5028 24.2388 20.7608 24.5022 20.9416C24.7656 21.1223 25.0751 21.2127 25.4307 21.2127Z" fill="#1B004E"/>
<path d="M17.678 22.4497C17.6315 22.4497 17.5938 22.4118 17.5938 22.365V15.5502C17.5938 15.5035 17.6315 15.4656 17.678 15.4656H19.1096C19.1561 15.4656 19.1939 15.5035 19.1939 15.5502V16.6115C19.1939 16.6178 19.199 16.623 19.2053 16.623C19.2102 16.623 19.2146 16.6197 19.2162 16.6149C19.3436 16.2177 19.5425 15.9161 19.8128 15.7103C20.0894 15.503 20.4516 15.3994 20.8993 15.3994C21.0135 15.3994 21.1144 15.4016 21.2022 15.406C21.2624 15.4089 21.317 15.4127 21.366 15.4175C21.408 15.4216 21.4393 15.4576 21.4393 15.5V16.8087C21.4393 16.8606 21.3932 16.9007 21.3419 16.8949C21.2865 16.8888 21.2158 16.8819 21.1298 16.8743C20.9805 16.8611 20.8225 16.8544 20.6557 16.8544C20.3967 16.8544 20.1596 16.9162 19.9445 17.0396C19.7338 17.1587 19.5648 17.3394 19.4375 17.582C19.3146 17.8245 19.2531 18.1287 19.2531 18.4947V22.365C19.2531 22.4118 19.2154 22.4497 19.1688 22.4497H17.678Z" fill="#1B004E"/>
<path d="M16.4668 15.4658C16.5134 15.4658 16.5511 15.5037 16.5511 15.5505V16.7237C16.5511 16.7705 16.5134 16.8084 16.4668 16.8084H12.3421C12.2955 16.8084 12.2578 16.7705 12.2578 16.7237V15.5505C12.2578 15.5037 12.2955 15.4658 12.3421 15.4658H16.4668ZM13.4694 13.6457C13.4694 13.5989 13.5072 13.561 13.5537 13.561H15.0511C15.0976 13.561 15.1354 13.5989 15.1354 13.6457V20.446C15.1354 20.6929 15.1859 20.8648 15.2868 20.9618C15.3878 21.0588 15.5722 21.1073 15.84 21.1073C15.9497 21.1073 16.0748 21.1073 16.2153 21.1073C16.3129 21.1073 16.3968 21.1073 16.4668 21.1073C16.5134 21.1073 16.5511 21.1452 16.5511 21.192V22.3653C16.5511 22.412 16.5134 22.4499 16.4669 22.4499C16.3657 22.4499 16.2423 22.4499 16.0968 22.4499C15.9124 22.4499 15.7302 22.4499 15.5502 22.4499C14.8391 22.4499 14.3145 22.3066 13.9765 22.02C13.6384 21.729 13.4694 21.2859 13.4694 20.6907V13.6457Z" fill="#1B004E"/>
<path d="M9.72547 22.4499C9.67892 22.4499 9.64118 22.412 9.64118 22.3653V15.5505C9.64118 15.5037 9.67892 15.4658 9.72547 15.4658H11.2163C11.2628 15.4658 11.3006 15.5037 11.3006 15.5505V22.3653C11.3006 22.412 11.2628 22.4499 11.2163 22.4499H9.72547ZM10.4709 14.4274C10.1855 14.4274 9.94847 14.3371 9.75971 14.1563C9.57094 13.9711 9.47656 13.744 9.47656 13.4751C9.47656 13.2061 9.57094 12.9812 9.75971 12.8005C9.94847 12.6197 10.1833 12.5293 10.4643 12.5293C10.7496 12.5293 10.9867 12.6197 11.1754 12.8005C11.3642 12.9812 11.4586 13.2083 11.4586 13.4817C11.4586 13.7506 11.3642 13.9755 11.1754 14.1563C10.9867 14.3371 10.7518 14.4274 10.4709 14.4274Z" fill="#1B004E"/>
<path d="M0.0842857 22.4497C0.037736 22.4497 0 22.4118 0 22.3651V12.6799C0 12.6331 0.037736 12.5952 0.0842857 12.5952H1.83013C1.8591 12.5952 1.88604 12.6102 1.90147 12.6348L5.32054 18.0912C5.41711 18.2412 5.53564 18.4396 5.67612 18.6865C5.82098 18.9334 5.97463 19.2024 6.13705 19.4934C6.29195 19.7667 6.43887 20.03 6.57779 20.2832C6.59053 20.3064 6.59167 20.3343 6.58092 20.3585L6.55135 20.4251C6.51517 20.5065 6.39491 20.4837 6.39115 20.3946C6.38327 20.2084 6.3754 20.0072 6.36752 19.791C6.35874 19.425 6.34996 19.0745 6.34118 18.7394C6.33679 18.4043 6.3346 18.1464 6.3346 17.9656V12.6799C6.3346 12.6331 6.37233 12.5952 6.41888 12.5952H7.99529C8.04184 12.5952 8.07958 12.6331 8.07958 12.6799V22.3651C8.07958 22.4118 8.04184 22.4497 7.99529 22.4497H6.24279C6.21386 22.4497 6.18695 22.4348 6.17151 22.4102L3.08828 17.5026C2.98292 17.3263 2.84245 17.0926 2.66685 16.8016C2.49126 16.5061 2.29152 16.1666 2.06763 15.783C1.85803 15.4167 1.63643 15.0283 1.40281 14.6178C1.38338 14.5837 1.38991 14.5406 1.41857 14.5138L1.52086 14.4182C1.57321 14.3693 1.65856 14.404 1.66222 14.4757C1.6839 14.9006 1.70051 15.2967 1.71205 15.664C1.72522 16.0829 1.73181 16.4488 1.73181 16.7619C1.7362 17.0749 1.73839 17.3196 1.73839 17.496V22.3651C1.73839 22.4118 1.70066 22.4497 1.65411 22.4497H0.0842857Z" fill="#1B004E"/>
<path d="M26.5492 7.13879C26.6555 7.05809 26.5764 6.88924 26.4466 6.91903L20.4676 8.28844C19.7668 8.4337 19.2501 9.08674 19.3156 9.8478C19.3749 10.5244 19.9126 11.0831 20.5838 11.1638C21.0165 11.216 21.4145 11.0744 21.7099 10.8174L26.5467 7.13879H26.5492Z" fill="#00E5B9"/>
<path d="M20.7631 0C14.7025 0 9.77416 4.86679 9.64066 10.9217C9.63819 11.0595 9.75068 11.1738 9.88788 11.1738H11.2476C11.3823 11.1738 11.4911 11.0645 11.4948 10.9292C11.6246 5.89974 15.7247 1.86229 20.7631 1.86229C25.8014 1.86229 29.9015 5.89974 30.0301 10.9292C30.0338 11.0645 30.1413 11.1738 30.2773 11.1738H31.637C31.7742 11.1738 31.8879 11.0608 31.8842 10.9217C31.752 4.86679 26.8236 0 20.7631 0Z" fill="#00E5B9"/>
</svg>
